<?xml version="1.0" encoding="utf-8"?>
<!-- Generator: Adobe Illustrator 16.0.4, SVG Export Plug-In . SVG Version: 6.00 Build 0)  -->
<!DOCTYPE svg PUBLIC "-//W3C//DTD SVG 1.1//EN" "http://www.w3.org/Graphics/SVG/1.1/DTD/svg11.dtd">
<svg version="1.1" id="Layer_1" xmlns="http://www.w3.org/2000/svg" xmlns:xlink="http://www.w3.org/1999/xlink" x="0px" y="0px"
	 width="612px" height="792px" viewBox="0 0 612 792" enable-background="new 0 0 612 792" xml:space="preserve">
<polygon fill="none" points="241.108,468.776 142.431,371.979 142.431,235.095 241.108,138.298 380.664,138.298 479.339,235.095 
	479.339,371.979 380.664,468.776 "/>
<text transform="matrix(1.0137 -0.1078 0.1058 0.9944 238.9688 139.165)" font-family="'MyriadPro-Regular'" font-size="61.0119"> </text>
<text transform="matrix(1.0195 0 0 1 250.9692 138.2979)" font-family="'MyriadPro-Regular'" font-size="61.0119"> </text>
<text transform="matrix(1.0195 0 0 1 264.1543 138.2979)" font-family="'MyriadPro-Regular'" font-size="61.0119"> </text>
<text transform="matrix(1.0195 0 0 1 276.0972 138.2979)" fill="#B7DDB6" font-family="'AndaleMono'" font-size="37.7726">0</text>
<text transform="matrix(1.0195 0 0 1 299.2036 138.2979)" fill="#B7DDB6" font-family="'AndaleMono'" font-size="37.7726">0</text>
<text transform="matrix(1.0195 0 0 1 322.3252 138.2979)" fill="#B7DDB6" font-family="'AndaleMono'" font-size="37.7726">0</text>
<text transform="matrix(1.0195 0 0 1 345.4365 138.2979)" fill="#B7DDB6" font-family="'AndaleMono'" font-size="37.7726"> </text>
<text transform="matrix(0.9669 0.323 -0.3168 0.9485 365.7715 134.8154)" fill="#B7DDB6" font-family="'AndaleMono'" font-size="37.7726"> </text>
<text transform="matrix(0.7278 0.7139 -0.7003 0.7139 382.8594 140.4507)" fill="#B7DDB6" font-family="'AndaleMono'" font-size="37.7726"> </text>
<text transform="matrix(0.7278 0.7139 -0.7003 0.7139 404.709 161.8848)" fill="#B7DDB6" font-family="'AndaleMono'" font-size="37.7726">0</text>
<text transform="matrix(0.7278 0.7139 -0.7003 0.7139 421.2109 178.0732)" fill="#B7DDB6" font-family="'AndaleMono'" font-size="37.7726">0</text>
<text transform="matrix(0.7278 0.7139 -0.7003 0.7139 437.7012 194.25)" fill="#B7DDB6" font-family="'AndaleMono'" font-size="37.7726">1</text>
<text transform="matrix(0.7278 0.7139 -0.7003 0.7139 454.1982 210.4326)" fill="#B7DDB6" font-family="'AndaleMono'" font-size="37.7726"> </text>
<text transform="matrix(0.4587 0.9104 -0.8931 0.4499 471.167 222.1099)" fill="#B7DDB6" font-family="'AndaleMono'" font-size="37.7726"> </text>
<text transform="matrix(-4.456201e-08 1.0195 -1 -4.371139e-08 479.3389 237.9951)" fill="#B7DDB6" font-family="'AndaleMono'" font-size="37.7726"> </text>
<text transform="matrix(-4.456201e-08 1.0195 -1 -4.371139e-08 479.3389 267.0635)" fill="#B7DDB6" font-family="'AndaleMono'" font-size="37.7726">0</text>
<text transform="matrix(-4.456201e-08 1.0195 -1 -4.371139e-08 479.3389 290.1782)" fill="#B7DDB6" font-family="'AndaleMono'" font-size="37.7726">1</text>
<text transform="matrix(-4.456201e-08 1.0195 -1 -4.371139e-08 479.3389 313.2695)" fill="#B7DDB6" font-family="'AndaleMono'" font-size="37.7726">0</text>
<text transform="matrix(-4.456201e-08 1.0195 -1 -4.371139e-08 479.3389 336.3857)" fill="#B7DDB6" font-family="'AndaleMono'" font-size="37.7726"> </text>
<text transform="matrix(-0.2723 0.9824 -0.9637 -0.2671 482.416 357.145)" fill="#B7DDB6" font-family="'AndaleMono'" font-size="37.7726"> </text>
<text transform="matrix(-0.7278 0.7139 -0.7003 -0.7139 477.5361 373.7476)" fill="#B7DDB6" font-family="'AndaleMono'" font-size="37.7726"> </text>
<text transform="matrix(-0.7278 0.7139 -0.7003 -0.7139 454.9004 395.9531)" fill="#B7DDB6" font-family="'AndaleMono'" font-size="37.7726">0</text>
<text transform="matrix(-0.7278 0.7139 -0.7003 -0.7139 438.4121 412.127)" fill="#B7DDB6" font-family="'AndaleMono'" font-size="37.7726">1</text>
<text transform="matrix(-0.7278 0.7139 -0.7003 -0.7139 421.9072 428.3184)" fill="#B7DDB6" font-family="'AndaleMono'" font-size="37.7726">1</text>
<text transform="matrix(-0.7278 0.7139 -0.7003 -0.7139 405.4277 444.4834)" fill="#B7DDB6" font-family="'AndaleMono'" font-size="37.7726"> </text>
<text transform="matrix(-0.9045 0.4702 -0.4612 -0.8873 393.0674 461.252)" fill="#B7DDB6" font-family="'AndaleMono'" font-size="37.7726"> </text>
<text transform="matrix(-1.0195 0 0 -1 377.0508 468.7764)" fill="#B7DDB6" font-family="'AndaleMono'" font-size="37.7726"> </text>
<text transform="matrix(-1.0195 0 0 -1 346.7158 468.7764)" fill="#B7DDB6" font-family="'AndaleMono'" font-size="37.7726">1</text>
<text transform="matrix(-1.0195 0 0 -1 323.6152 468.7764)" fill="#B7DDB6" font-family="'AndaleMono'" font-size="37.7726">0</text>
<text transform="matrix(-1.0195 0 0 -1 300.4946 468.7764)" fill="#B7DDB6" font-family="'AndaleMono'" font-size="37.7726">0</text>
<text transform="matrix(-1.0195 0 0 -1 277.4116 468.7764)" fill="#B7DDB6" font-family="'AndaleMono'" font-size="37.7726"> </text>
<text transform="matrix(-0.9856 -0.2606 0.2556 -0.9668 256.875 471.6494)" fill="#B7DDB6" font-family="'AndaleMono'" font-size="37.7726"> </text>
<text transform="matrix(-0.7278 -0.7139 0.7003 -0.7139 239.6704 467.3662)" fill="#B7DDB6" font-family="'AndaleMono'" font-size="37.7726"> </text>
<text transform="matrix(-0.7278 -0.7139 0.7003 -0.7139 219.3311 447.4141)" fill="#B7DDB6" font-family="'AndaleMono'" font-size="37.7726">1</text>
<text transform="matrix(-0.7278 -0.7139 0.7003 -0.7139 202.8345 431.2334)" fill="#B7DDB6" font-family="'AndaleMono'" font-size="37.7726">0</text>
<text transform="matrix(-0.7278 -0.7139 0.7003 -0.7139 186.3384 415.0508)" fill="#B7DDB6" font-family="'AndaleMono'" font-size="37.7726">1</text>
<text transform="matrix(-0.7278 -0.7139 0.7003 -0.7139 169.8359 398.8623)" fill="#B7DDB6" font-family="'AndaleMono'" font-size="37.7726"> </text>
<text transform="matrix(-0.5538 -0.8559 0.8396 -0.5432 152.9775 385.8711)" fill="#B7DDB6" font-family="'AndaleMono'" font-size="37.7726"> </text>
<text transform="matrix(-4.456201e-08 -1.0195 1 -4.371139e-08 142.4297 372.2739)" fill="#B7DDB6" font-family="'AndaleMono'" font-size="37.7726"> </text>
<text transform="matrix(-4.456201e-08 -1.0195 1 -4.371139e-08 142.4297 341.2534)" fill="#B7DDB6" font-family="'AndaleMono'" font-size="37.7726">1</text>
<text transform="matrix(-4.456201e-08 -1.0195 1 -4.371139e-08 142.4297 318.1484)" fill="#B7DDB6" font-family="'AndaleMono'" font-size="37.7726">1</text>
<text transform="matrix(-4.456201e-08 -1.0195 1 -4.371139e-08 142.4297 295.0537)" fill="#B7DDB6" font-family="'AndaleMono'" font-size="37.7726">0</text>
<text transform="matrix(-4.456201e-08 -1.0195 1 -4.371139e-08 142.4297 271.915)" fill="#B7DDB6" font-family="'AndaleMono'" font-size="37.7726"> </text>
<text transform="matrix(0.2305 -0.9931 0.9741 0.2261 139.8174 250.8457)" fill="#B7DDB6" font-family="'AndaleMono'" font-size="37.7726"> </text>
<text transform="matrix(0.7278 -0.7139 0.7003 0.7139 143.3325 234.21)" fill="#B7DDB6" font-family="'AndaleMono'" font-size="37.7726"> </text>
<text transform="matrix(0.7278 -0.7139 0.7003 0.7139 167.1089 210.8867)" fill="#B7DDB6" font-family="'AndaleMono'" font-size="37.7726">1</text>
<text transform="matrix(0.7278 -0.7139 0.7003 0.7139 183.6113 194.6987)" fill="#B7DDB6" font-family="'AndaleMono'" font-size="37.7726">1</text>
<text transform="matrix(0.7278 -0.7139 0.7003 0.7139 200.1045 178.5205)" fill="#B7DDB6" font-family="'AndaleMono'" font-size="37.7726">1</text>
</svg>
