<?xml version="1.0" encoding="iso-8859-1"?>
<!-- Generator: Adobe Illustrator 16.0.4, SVG Export Plug-In . SVG Version: 6.00 Build 0)  -->
<!DOCTYPE svg PUBLIC "-//W3C//DTD SVG 1.1//EN" "http://www.w3.org/Graphics/SVG/1.1/DTD/svg11.dtd">
<svg version="1.1" id="Layer_1" xmlns="http://www.w3.org/2000/svg" xmlns:xlink="http://www.w3.org/1999/xlink" x="0px" y="0px"
	 width="612px" height="961.062px" viewBox="0 0 612 961.062" style="enable-background:new 0 0 612 961.062;" xml:space="preserve"
	>
<polygon style="stroke:#9FD39F;stroke-width:0.6943;stroke-miterlimit:10;" points="386.307,431.895 477.213,525.123 
	477.213,656.958 386.307,750.181 257.735,750.181 166.826,656.958 166.826,525.123 257.735,431.895 "/>
<g>
	
		<line style="fill:none;stroke:#B8B8B8;stroke-width:0.6943;stroke-miterlimit:10;" x1="359.628" y1="843.021" x2="385.529" y2="868.92"/>
	<polyline style="fill:none;stroke:#B8B8B8;stroke-width:0.5776;stroke-miterlimit:10;" points="442.8,922.071 477.528,888.729 
		477.528,868.925 466.637,868.925 	"/>
	<polyline style="fill:none;stroke:#B8B8B8;stroke-width:0.5776;stroke-miterlimit:10;" points="385.355,868.91 433.258,868.91 
		464.553,868.91 466.749,868.91 	"/>
	
		<line style="fill:none;stroke:#B8B8B8;stroke-width:0.6943;stroke-miterlimit:10;" x1="284.416" y1="843.025" x2="258.518" y2="868.925"/>
	<polyline style="fill:none;stroke:#B8B8B8;stroke-width:0.5776;stroke-miterlimit:10;" points="201.247,922.075 166.519,888.732 
		166.519,868.929 177.409,868.929 	"/>
	<polyline style="fill:none;stroke:#B8B8B8;stroke-width:0.5776;stroke-miterlimit:10;" points="258.692,868.914 210.788,868.914 
		179.493,868.914 177.296,868.914 	"/>
</g>
<g>
	
		<line style="fill:none;stroke:#B8B8B8;stroke-width:0.6943;stroke-miterlimit:10;" x1="359.628" y1="138.714" x2="385.529" y2="164.612"/>
	<polyline style="fill:none;stroke:#B8B8B8;stroke-width:0.5776;stroke-miterlimit:10;" points="442.8,217.764 477.528,184.421 
		477.528,164.617 466.637,164.617 	"/>
	<polyline style="fill:none;stroke:#B8B8B8;stroke-width:0.5776;stroke-miterlimit:10;" points="385.355,164.603 433.258,164.603 
		464.553,164.603 466.749,164.603 	"/>
	
		<line style="fill:none;stroke:#B8B8B8;stroke-width:0.6943;stroke-miterlimit:10;" x1="284.416" y1="138.718" x2="258.518" y2="164.617"/>
	<polyline style="fill:none;stroke:#B8B8B8;stroke-width:0.5776;stroke-miterlimit:10;" points="201.247,217.768 166.519,184.425 
		166.519,164.621 177.409,164.621 	"/>
	<polyline style="fill:none;stroke:#B8B8B8;stroke-width:0.5776;stroke-miterlimit:10;" points="258.692,164.606 210.788,164.606 
		179.493,164.606 177.296,164.606 	"/>
</g>
</svg>
